<?xml version="1.0" standalone="no"?>
<!DOCTYPE svg PUBLIC "-//W3C//DTD SVG 20010904//EN"
 "http://www.w3.org/TR/2001/REC-SVG-20010904/DTD/svg10.dtd">
<svg version="1.0" xmlns="http://www.w3.org/2000/svg"
 width="466.000000pt" height="86.000000pt" viewBox="0 0 466.000000 86.000000"
 preserveAspectRatio="xMidYMid meet">

<g transform="translate(0.000000,86.000000) scale(0.100000,-0.100000)"
fill="#000000" stroke="none">
<path d="M640 706 c-30 -7 -63 -17 -74 -23 -32 -18 -3 -22 54 -7 30 8 64 14
77 14 27 0 39 16 17 24 -9 3 -16 6 -17 5 -1 -1 -27 -6 -57 -13z"/>
<path d="M3980 677 c0 -7 9 -30 20 -52 11 -22 20 -61 21 -90 l1 -50 8 39 c8
44 1 80 -25 120 -10 14 -13 26 -8 26 11 0 36 -47 52 -95 8 -25 10 -26 10 -8 1
34 -29 102 -50 113 -24 13 -29 13 -29 -3z"/>
<path d="M1960 648 c-41 -67 -37 -176 7 -228 24 -29 53 -40 53 -21 0 6 -9 26
-21 46 -18 29 -21 48 -17 109 2 52 8 80 21 93 22 25 22 33 -3 33 -12 0 -28
-13 -40 -32z m20 -23 c-26 -52 -26 -129 0 -178 11 -20 16 -37 12 -37 -38 0
-52 183 -19 234 26 39 30 27 7 -19z"/>
<path d="M3454 645 c-45 -19 -74 -61 -74 -107 0 -57 51 -108 108 -108 23 0 52
4 66 10 23 8 26 15 26 55 l0 45 -40 0 c-29 0 -40 -4 -40 -15 0 -9 7 -18 15
-21 23 -9 7 -24 -25 -24 -31 0 -60 30 -60 63 0 10 11 29 25 43 22 22 31 25 64
19 43 -7 63 8 40 30 -22 20 -71 25 -105 10z m32 -15 c-41 -13 -63 -36 -69 -77
-7 -43 4 -68 41 -87 17 -10 21 -15 11 -16 -31 0 -69 50 -69 92 0 50 43 98 87
97 l28 -1 -29 -8z m64 -4 c0 -11 -19 -15 -25 -6 -3 5 1 10 9 10 9 0 16 -2 16
-4z m8 -124 c4 -27 -14 -52 -37 -51 -11 0 -9 3 7 9 32 13 27 49 -8 63 -9 4 -4
6 10 4 18 -1 26 -9 28 -25z"/>
<path d="M887 643 c-4 -3 -7 -16 -6 -27 1 -18 2 -18 9 4 5 16 8 -11 8 -75 -1
-72 -3 -89 -8 -60 l-7 40 -2 -47 c-1 -42 2 -48 19 -48 17 0 20 7 20 45 0 25 4
45 8 45 5 0 23 -20 41 -45 23 -32 39 -45 57 -45 32 0 30 9 -11 63 -19 25 -35
49 -35 54 0 4 14 26 31 48 l30 40 -23 3 c-16 3 -31 -6 -53 -32 -16 -20 -33
-36 -37 -36 -5 0 -8 18 -8 40 0 38 -14 52 -33 33z m95 -60 l-30 -39 35 -42
c20 -24 33 -45 31 -48 -6 -5 -78 80 -78 91 0 12 62 86 67 81 3 -3 -8 -22 -25
-43z"/>
<path d="M1250 595 c0 -30 -4 -55 -8 -55 -4 0 -30 23 -57 50 -27 28 -55 50
-62 50 -10 0 -13 -22 -11 -87 l2 -88 3 73 c2 39 8 72 14 72 5 0 35 -25 67 -55
31 -30 60 -55 65 -55 4 0 5 27 3 60 -3 33 -1 62 5 65 12 8 15 -142 3 -154 -3
-3 -33 23 -68 58 -58 58 -64 61 -67 39 -2 -12 -1 -45 2 -73 l6 -50 1 46 c1 25
4 48 7 51 4 3 34 -20 68 -52 34 -32 65 -56 69 -54 5 3 8 52 8 110 l0 104 -25
0 c-24 0 -25 -3 -25 -55z"/>
<path d="M1391 621 c-30 -28 -37 -49 -32 -100 3 -30 29 -71 47 -71 9 0 6 11
-11 36 -14 20 -25 46 -25 58 0 45 60 96 113 96 26 0 71 -43 81 -77 9 -28 -16
-86 -45 -107 -19 -13 -20 -16 -6 -16 10 0 29 12 42 26 38 41 35 115 -4 155
-25 24 -38 29 -79 29 -41 0 -55 -5 -81 -29z"/>
<path d="M1634 635 c-7 -17 33 -183 47 -199 5 -6 20 16 36 52 14 34 31 62 37
62 6 0 22 -25 35 -56 13 -30 29 -53 35 -51 10 3 46 108 61 179 6 27 5 29 -16
26 -18 -2 -26 -13 -37 -51 -7 -26 -17 -45 -22 -42 -5 3 -16 25 -26 50 -9 25
-21 45 -25 45 -5 0 -20 -23 -35 -51 -14 -28 -27 -49 -30 -46 -2 2 -10 24 -17
47 -13 46 -33 62 -43 35z m34 -44 c7 -21 12 -45 12 -54 0 -36 20 -24 44 28 14
30 27 55 30 55 3 0 19 -26 35 -57 l29 -58 12 30 c6 17 14 42 17 58 3 15 10 30
16 34 7 4 8 0 3 -12 -3 -10 -14 -47 -22 -81 -9 -35 -20 -61 -25 -59 -4 3 -19
30 -33 61 -14 30 -29 53 -34 50 -5 -3 -19 -30 -32 -60 -13 -31 -27 -56 -32
-56 -4 0 -8 2 -8 5 0 5 -28 113 -36 137 -3 10 -1 18 4 18 5 0 14 -17 20 -39z"/>
<path d="M2082 553 c2 -97 2 -97 5 -20 2 42 8 77 14 77 5 0 35 -25 67 -55 31
-30 60 -55 64 -55 4 0 5 27 3 60 -2 33 1 62 6 65 13 9 16 -141 3 -154 -3 -3
-33 23 -67 57 -34 34 -65 62 -69 62 -9 0 -4 -127 5 -136 4 -4 7 13 7 38 0 24
3 47 6 50 3 4 33 -19 66 -50 33 -32 64 -58 69 -60 5 -2 9 45 9 107 l0 111 -25
0 c-24 0 -25 -3 -25 -55 0 -30 -4 -55 -8 -55 -4 0 -32 25 -62 55 -30 30 -58
55 -62 55 -4 0 -7 -44 -6 -97z"/>
<path d="M2382 637 c-58 -32 -74 -119 -32 -165 33 -35 42 -26 15 14 -35 51
-32 80 11 120 48 46 98 47 134 2 44 -56 23 -134 -43 -163 -20 -9 -25 -14 -14
-15 54 -1 96 48 97 113 0 40 -5 53 -29 78 -24 23 -38 29 -73 29 -24 -1 -53 -6
-66 -13z"/>
<path d="M2710 635 c11 -13 8 -14 -16 -9 -36 7 -70 -16 -61 -40 4 -9 27 -28
52 -44 48 -29 58 -57 29 -86 -17 -18 -79 -22 -89 -5 -11 17 1 20 29 8 23 -11
30 -10 47 7 26 26 18 43 -36 76 -47 28 -59 60 -33 86 9 9 9 12 0 12 -18 0 -34
-39 -28 -66 4 -14 22 -32 46 -44 46 -23 56 -60 17 -60 -13 0 -28 5 -34 11 -8
8 -14 6 -22 -10 -9 -17 -8 -22 8 -31 33 -17 89 -12 111 10 39 39 23 78 -47
114 -52 26 -38 64 15 44 13 -4 28 -6 33 -2 14 9 10 31 -7 38 -24 9 -28 7 -14
-9z"/>
<path d="M2790 632 c0 -17 6 -22 25 -22 24 0 24 -2 27 -87 3 -82 4 -88 25 -91
21 -3 22 0 25 85 3 79 5 88 23 92 22 4 36 21 29 33 -3 4 -35 7 -72 6 l-67 -1
65 -7 c36 -4 53 -7 38 -8 -33 -2 -40 -22 -38 -105 2 -96 -3 -92 -9 8 -6 82 -8
90 -25 87 -11 -2 -26 4 -33 14 -12 17 -13 16 -13 -4z"/>
<path d="M3007 550 c-26 -55 -47 -105 -47 -110 0 -16 40 -12 46 5 4 11 21 15
55 15 35 0 51 -4 55 -15 8 -19 44 -20 44 -1 0 19 -89 206 -98 206 -5 0 -29
-45 -55 -100z m127 -80 c6 -23 6 -23 -7 -7 -19 23 -103 24 -129 0 -25 -22 -22
-8 10 57 59 116 50 113 87 39 18 -35 35 -75 39 -89z"/>
<path d="M3040 550 c-11 -21 -20 -44 -20 -50 0 -5 20 -10 45 -10 25 0 45 2 45
4 0 10 -40 96 -44 96 -3 0 -15 -18 -26 -40z m37 -16 c7 -20 -8 -36 -25 -25
-14 8 -6 41 9 41 5 0 12 -7 16 -16z"/>
<path d="M3220 540 l0 -110 60 0 c53 0 60 2 60 19 0 16 -8 20 -37 23 l-38 3
-3 88 c-3 79 -5 87 -22 87 -19 0 -20 -7 -20 -110z m30 5 c0 -87 1 -90 42 -86
9 1 19 -3 23 -9 5 -8 -7 -10 -37 -8 l-43 3 -3 93 c-2 59 1 92 8 92 6 0 10 -33
10 -85z"/>
<path d="M3640 540 c0 -103 1 -110 20 -110 19 0 20 7 20 110 0 103 -1 110 -20
110 -19 0 -20 -7 -20 -110z m27 27 c2 -28 -1 -65 -6 -82 -7 -23 -9 -11 -10 59
-1 95 10 112 16 23z"/>
<path d="M3780 548 c-28 -57 -50 -106 -50 -110 0 -15 48 -8 54 7 4 11 20 15
55 15 34 0 51 -4 55 -15 6 -16 46 -21 46 -6 0 5 -15 40 -33 77 -19 38 -39 84
-47 102 -7 17 -17 32 -22 32 -5 0 -31 -46 -58 -102z m101 -11 c20 -45 35 -84
32 -87 -2 -3 -9 3 -14 13 -14 25 -114 25 -128 0 -5 -10 -12 -16 -14 -13 -6 6
74 170 82 170 3 0 22 -37 42 -83z"/>
<path d="M3812 546 c-12 -24 -22 -46 -22 -50 0 -3 20 -6 45 -6 25 0 45 3 45 7
0 15 -33 93 -40 93 -3 0 -16 -20 -28 -44z m41 -16 c4 -16 0 -20 -19 -20 -22 0
-23 3 -14 20 6 11 15 20 19 20 5 0 11 -9 14 -20z"/>
<path d="M2415 620 c-90 -34 -67 -160 29 -160 62 0 100 82 62 133 -17 22 -65
37 -91 27z m56 -21 c46 -24 42 -95 -6 -117 -33 -15 -63 -4 -80 29 -31 60 27
120 86 88z"/>
<path d="M1410 595 c-50 -53 -11 -135 64 -135 67 0 102 88 56 138 -30 32 -89
30 -120 -3z m91 4 c69 -36 18 -147 -55 -119 -50 19 -57 84 -13 115 25 18 41
19 68 4z"/>
<path d="M480 606 c0 -2 7 -7 16 -10 8 -3 12 -2 9 4 -6 10 -25 14 -25 6z"/>
<path d="M311 561 c-18 -22 -27 -42 -22 -45 5 -3 21 14 34 39 14 25 24 45 22
45 -2 0 -17 -18 -34 -39z"/>
<path d="M4052 510 c0 -14 2 -19 5 -12 2 6 2 18 0 25 -3 6 -5 1 -5 -13z"/>
<path d="M305 430 c-3 -5 -1 -10 4 -10 6 0 11 5 11 10 0 6 -2 10 -4 10 -3 0
-8 -4 -11 -10z"/>
<path d="M1118 433 c7 -3 16 -2 19 1 4 3 -2 6 -13 5 -11 0 -14 -3 -6 -6z"/>
<path d="M2088 433 c7 -3 16 -2 19 1 4 3 -2 6 -13 5 -11 0 -14 -3 -6 -6z"/>
<path d="M3987 433 c-9 -9 -9 -43 1 -43 4 0 16 8 27 17 18 14 18 15 1 9 -14
-5 -17 -2 -12 9 5 15 -5 21 -17 8z"/>
<path d="M213 423 c9 -2 25 -2 35 0 9 3 1 5 -18 5 -19 0 -27 -2 -17 -5z"/>
<path d="M416 351 c-4 -5 3 -7 14 -4 23 6 26 13 6 13 -8 0 -17 -4 -20 -9z"/>
</g>
</svg>
