<?xml version="1.0" standalone="no"?>
<!DOCTYPE svg PUBLIC "-//W3C//DTD SVG 20010904//EN"
 "http://www.w3.org/TR/2001/REC-SVG-20010904/DTD/svg10.dtd">
<svg version="1.0" xmlns="http://www.w3.org/2000/svg"
 width="1920.000000pt" height="1080.000000pt" viewBox="0 0 1920.000000 1080.000000"
 preserveAspectRatio="xMidYMid meet">

<g transform="translate(0.000000,1080.000000) scale(0.100000,-0.100000)"
fill="#000000" stroke="none">
<path d="M17335 9529 c-22 -4 -52 -6 -66 -3 -14 3 -70 -2 -125 -10 -54 -8
-121 -14 -149 -13 -101 1 -399 -57 -414 -81 -3 -6 -35 -15 -71 -22 -127 -22
-386 -81 -420 -96 -78 -32 -471 -141 -820 -228 -58 -14 -161 -42 -230 -61
-225 -62 -590 -145 -643 -145 -71 0 -351 37 -462 61 -110 23 -266 46 -400 59
-55 5 -156 18 -225 29 -69 11 -177 25 -240 31 -63 6 -207 27 -318 46 -129 21
-237 34 -295 34 -104 0 -266 22 -842 115 -220 35 -422 64 -450 63 -69 -1 -280
18 -395 37 -52 9 -153 20 -225 25 -132 10 -367 32 -530 50 -49 5 -183 10 -297
10 -224 0 -314 -11 -408 -52 -30 -14 -62 -23 -71 -21 -8 2 -69 -17 -135 -42
-65 -26 -139 -53 -164 -62 -84 -28 -244 -112 -397 -208 -83 -52 -163 -95 -176
-95 -14 0 -110 -57 -234 -139 -221 -146 -252 -164 -294 -174 -15 -4 -62 -32
-105 -63 -44 -31 -93 -61 -109 -65 -17 -5 -73 -34 -125 -65 -109 -66 -184
-104 -203 -104 -21 0 -89 -39 -172 -101 -108 -80 -277 -189 -293 -189 -7 0
-39 -17 -70 -38 -31 -21 -70 -45 -87 -54 -16 -8 -52 -28 -80 -45 -121 -73
-338 -193 -349 -193 -7 0 -61 -29 -121 -65 -60 -36 -113 -65 -116 -65 -4 0
-12 -13 -18 -29 -18 -41 6 -91 59 -127 24 -16 70 -56 104 -90 72 -71 146 -124
175 -124 11 0 32 -5 47 -10 15 -6 77 -13 138 -16 130 -7 240 11 325 54 56 28
200 167 248 238 14 22 34 47 44 57 11 10 26 32 35 49 21 40 204 218 224 218 9
0 40 25 70 55 30 30 60 55 66 55 7 0 32 24 56 53 23 28 48 54 53 56 6 2 42 35
80 72 54 52 74 66 86 59 22 -13 73 27 149 115 64 73 203 185 231 185 23 0 41
25 38 52 -2 14 5 32 18 45 29 29 175 126 294 195 52 31 102 64 109 73 20 24
141 104 230 153 92 50 252 113 357 142 43 11 87 25 98 30 11 5 76 21 145 36
69 14 145 32 170 39 25 8 97 17 160 20 63 3 136 11 163 18 36 8 80 8 180 -2
72 -6 197 -16 277 -21 80 -4 165 -13 190 -19 25 -5 108 -20 185 -31 183 -27
499 -82 753 -131 112 -21 217 -39 234 -39 16 0 80 -11 141 -25 62 -14 139 -28
172 -31 71 -6 680 -100 743 -115 24 -5 107 -16 185 -24 77 -8 185 -22 239 -31
54 -8 102 -13 107 -9 9 5 349 -60 358 -68 6 -7 -1194 -307 -1226 -307 -11 0
-106 -24 -213 -54 -276 -77 -544 -132 -564 -115 -12 9 -29 10 -82 1 -37 -7
-125 -21 -197 -32 -71 -11 -243 -40 -381 -63 -222 -38 -253 -41 -261 -28 -9
14 -20 14 -102 -2 -189 -36 -274 -60 -278 -76 -3 -13 -59 -30 -216 -70 -117
-29 -234 -57 -262 -63 -27 -6 -106 -26 -175 -45 -184 -52 -352 -92 -366 -86
-7 2 -86 -18 -176 -46 -89 -28 -271 -79 -403 -115 -132 -35 -303 -82 -380
-105 -77 -22 -182 -50 -235 -61 -52 -12 -97 -25 -100 -29 -5 -8 -111 -52 -350
-142 -139 -53 -242 -98 -260 -114 -8 -7 -51 -22 -96 -33 -44 -11 -143 -49
-220 -84 -76 -36 -160 -73 -185 -82 -51 -19 -85 -49 -74 -66 4 -7 -2 -18 -14
-26 -12 -8 -21 -21 -21 -27 0 -7 -25 -37 -56 -67 -30 -30 -83 -92 -116 -137
-34 -46 -65 -83 -69 -83 -10 0 -129 -215 -129 -234 0 -28 -54 -116 -72 -116
-20 0 -21 -5 -48 -135 -12 -60 -27 -105 -36 -112 -32 -23 -80 -292 -55 -307
14 -9 15 -53 1 -61 -5 -3 -10 -52 -10 -108 0 -56 -4 -129 -10 -162 -5 -33 -10
-82 -11 -110 0 -27 -6 -67 -12 -88 l-12 -39 -24 26 -24 26 22 24 c31 33 19 50
-32 42 -53 -9 -198 -56 -217 -71 -26 -22 -156 -47 -212 -42 -118 10 -239 45
-362 105 -66 33 -146 68 -176 77 -30 10 -136 56 -235 102 -99 47 -271 127
-382 179 -111 51 -271 129 -357 173 -85 45 -163 81 -173 81 -19 0 -33 7 -495
234 -163 80 -299 146 -303 146 -4 0 -69 29 -146 65 -77 36 -164 72 -193 79
-73 19 -166 68 -708 375 -32 18 -62 30 -68 26 -6 -3 -74 27 -153 68 -167 88
-197 103 -297 152 -221 110 -572 297 -720 385 -66 39 -450 213 -541 245 -20 8
-50 20 -65 28 -21 10 -45 12 -86 8 -32 -4 -62 -3 -67 2 -14 14 -31 -1 -48 -42
-23 -52 -31 -90 -52 -237 -18 -121 -18 -143 -6 -280 30 -330 63 -505 121 -632
13 -29 24 -63 24 -75 0 -25 37 -86 82 -133 l29 -31 40 18 c63 31 73 55 59 141
-6 40 -13 82 -14 93 -2 11 -9 40 -16 65 -7 25 -13 54 -12 65 1 11 -7 49 -17
85 -11 36 -19 72 -19 80 0 14 -19 141 -42 275 -14 78 -31 253 -33 335 l-2 65
45 -3 c25 -2 61 -12 80 -21 111 -56 259 -126 358 -170 62 -28 137 -65 165 -84
29 -19 72 -44 96 -57 24 -12 52 -29 62 -39 10 -9 73 -45 141 -80 151 -78 523
-282 586 -321 83 -51 234 -136 353 -198 149 -78 427 -233 651 -364 97 -57 270
-158 385 -224 248 -145 999 -528 1020 -520 13 5 79 -25 348 -160 50 -25 228
-115 396 -200 169 -85 311 -154 317 -154 6 0 67 -27 137 -61 70 -33 133 -58
141 -55 8 3 27 1 42 -5 27 -11 48 -16 182 -44 41 -9 83 -20 94 -26 12 -7 38
-7 85 0 36 6 77 10 91 10 14 -1 49 2 78 6 l53 8 -11 -27 c-15 -40 -12 -137 5
-169 8 -16 18 -64 21 -108 4 -44 11 -82 15 -85 5 -3 9 -38 9 -78 0 -44 5 -77
12 -84 7 -7 20 -57 29 -110 9 -53 31 -167 49 -252 17 -85 36 -182 41 -215 23
-137 55 -257 101 -380 49 -130 102 -233 126 -242 6 -3 12 -15 12 -27 0 -12 23
-58 50 -101 28 -44 50 -87 49 -95 -3 -31 2 -40 54 -102 29 -35 60 -74 69 -88
23 -36 259 -233 355 -297 34 -23 50 -40 46 -49 -4 -10 15 -24 65 -46 52 -23
72 -37 77 -55 3 -13 13 -23 23 -23 57 0 278 -33 300 -44 15 -7 50 -16 78 -20
29 -3 65 -13 80 -21 32 -16 247 -48 429 -65 173 -16 542 10 566 39 13 15 47
25 145 42 71 12 136 28 144 34 20 16 110 46 120 40 4 -3 29 3 55 12 40 13 54
14 82 4 32 -12 39 -10 128 38 52 28 101 48 109 45 7 -3 49 19 92 48 44 30 123
78 176 107 99 53 119 71 111 100 -5 19 119 87 152 83 12 -2 41 15 70 39 28 23
109 86 180 139 72 54 168 136 215 184 46 47 89 86 94 86 14 0 73 54 253 230
203 198 260 264 382 440 52 74 102 142 112 150 23 19 103 151 170 280 28 56
68 124 88 151 20 27 51 75 69 106 18 32 46 74 63 93 38 43 57 79 103 197 19
50 47 116 61 147 14 30 25 59 25 65 0 17 103 215 116 223 18 11 114 252 114
287 0 16 4 32 9 35 4 3 23 56 41 117 26 90 30 113 19 120 -11 6 -10 9 3 14 16
6 31 57 88 300 42 178 41 175 31 175 -5 0 5 53 21 117 16 65 27 128 25 141 -2
13 2 57 10 99 8 42 12 85 10 95 -3 10 -1 20 4 23 19 12 40 149 65 422 4 40 12
79 18 86 13 16 96 46 211 77 44 12 119 32 166 46 47 13 99 24 115 24 15 0 69
11 119 24 103 28 417 103 457 109 25 4 27 1 37 -58 6 -34 11 -73 11 -86 0 -30
57 -284 69 -307 4 -9 14 -60 20 -112 15 -110 30 -181 42 -194 5 -6 9 -25 9
-44 0 -49 22 -175 32 -189 6 -7 11 -41 13 -75 2 -35 15 -103 30 -153 14 -49
31 -112 37 -140 5 -27 21 -85 34 -128 14 -43 28 -113 33 -155 14 -125 149
-482 205 -544 19 -21 38 -48 42 -60 15 -52 56 -119 83 -139 17 -12 27 -28 24
-37 -2 -10 20 -48 51 -88 30 -39 66 -95 81 -123 14 -29 31 -51 38 -48 11 3 47
-33 47 -47 0 -27 224 -268 343 -370 64 -54 238 -146 278 -146 15 0 58 -14 96
-31 37 -17 82 -31 98 -31 17 1 55 -6 86 -13 31 -8 71 -15 88 -15 16 0 76 -12
132 -26 93 -23 110 -25 188 -16 100 12 425 78 452 93 11 5 19 19 19 29 0 23
15 27 23 5 5 -12 13 -11 54 7 26 11 82 42 123 69 54 34 76 44 78 34 2 -10 17
-5 55 19 29 18 68 41 87 50 19 10 53 40 75 66 22 27 54 59 72 70 18 12 34 29
37 38 3 9 40 46 82 82 41 36 103 94 137 130 34 36 91 92 127 125 179 165 257
251 385 426 141 192 175 243 175 263 0 12 21 55 47 96 51 82 123 235 123 262
0 10 25 70 55 135 56 117 64 142 69 200 5 52 78 265 109 316 32 53 92 277 106
397 5 41 16 111 24 155 8 44 18 125 22 180 4 55 12 106 18 113 7 9 11 87 11
210 1 119 5 200 11 204 6 4 19 8 30 8 11 0 34 7 50 16 17 9 53 23 80 31 28 8
59 23 70 33 11 9 35 22 54 29 42 14 93 68 86 91 -3 10 1 29 8 43 10 20 11 39
4 79 -15 82 -14 81 -47 75 -24 -5 -38 1 -82 39 -29 25 -87 62 -128 82 -41 19
-80 41 -86 47 -18 18 -26 65 -28 170 -2 55 -10 127 -19 160 -21 75 -27 225
-10 225 30 0 22 42 -28 142 -28 57 -61 117 -74 134 -16 21 -20 35 -14 46 6 11
2 24 -11 41 -11 14 -20 32 -20 40 0 15 -70 62 -159 107 -24 12 -53 32 -65 44
-11 13 -52 33 -91 45 -38 13 -83 28 -100 33 -187 63 -339 85 -474 67 -50 -6
-78 -6 -85 1 -11 11 -24 11 -81 -1z m384 -60 c43 -6 69 -16 78 -28 7 -10 26
-21 42 -24 17 -4 73 -25 125 -47 52 -22 104 -40 116 -40 11 0 44 -17 73 -38
29 -21 62 -44 75 -51 12 -6 22 -18 22 -26 0 -8 6 -29 14 -47 8 -18 17 -44 20
-58 3 -14 23 -47 44 -75 24 -32 51 -89 74 -155 46 -132 49 -148 52 -267 2 -54
7 -121 11 -150 l7 -52 -63 20 c-50 16 -120 24 -319 34 -140 8 -302 19 -360 25
-274 30 -345 39 -475 63 -310 57 -411 71 -540 72 -97 2 -138 6 -160 18 -16 9
-84 23 -150 32 -66 9 -190 27 -275 40 -85 13 -180 24 -210 24 -30 0 -82 8
-115 16 -33 9 -93 19 -134 22 -55 5 -80 11 -100 28 -56 47 -113 67 -321 112
-23 5 -22 7 20 25 25 11 54 28 65 38 21 18 96 43 263 85 56 14 153 44 215 66
61 22 165 54 230 70 118 29 150 41 174 65 7 7 32 15 55 19 24 4 90 18 148 32
58 13 137 27 175 29 98 7 269 40 335 65 63 24 166 37 365 45 77 3 165 10 195
14 82 11 157 11 229 -1z m-8534 -201 c-16 -6 -68 -26 -115 -46 -126 -52 -183
-72 -188 -67 -3 2 8 9 24 15 16 6 65 27 109 47 79 36 156 61 185 61 8 0 2 -4
-15 -10z m-455 -198 c0 -5 -8 -10 -17 -10 -15 0 -16 2 -3 10 19 12 20 12 20 0z
m-145 -78 c-22 -19 -88 -55 -81 -44 4 7 24 21 44 32 41 21 51 24 37 12z m6515
-26 c0 -8 -77 -53 -108 -64 -18 -6 -47 -21 -64 -33 -24 -17 -43 -22 -91 -20
-34 1 -62 3 -64 5 -2 1 43 15 100 31 56 15 108 33 116 39 24 19 111 52 111 42z
m-6910 -200 c0 -2 -18 -15 -40 -30 -22 -14 -40 -22 -40 -17 0 5 15 18 33 29
31 20 47 26 47 18z m5887 -112 c24 -2 93 -16 155 -31 62 -15 133 -27 158 -26
25 1 55 0 68 -3 21 -4 18 -9 -35 -54 -32 -27 -63 -50 -69 -50 -5 0 -25 -16
-44 -35 -19 -20 -40 -33 -47 -31 -7 3 -48 -38 -95 -96 -46 -56 -96 -116 -113
-134 -16 -17 -48 -68 -70 -113 -21 -45 -45 -81 -53 -81 -17 0 -35 -45 -58
-145 -10 -44 -24 -84 -31 -88 -7 -4 -13 -15 -13 -23 0 -9 -6 -30 -14 -47 -8
-18 -17 -54 -20 -82 -8 -73 -24 -185 -31 -220 -6 -29 -8 -30 -58 -27 -35 2
-93 -8 -182 -31 -71 -19 -161 -42 -200 -52 -38 -9 -102 -26 -142 -36 -39 -10
-82 -19 -95 -19 -31 0 -264 -57 -290 -71 -11 -6 -31 -13 -45 -15 -14 -3 -47
-16 -73 -29 -54 -27 -66 -20 -43 27 32 62 -34 267 -114 353 -10 11 -26 38 -36
60 -24 50 -105 165 -117 165 -5 0 -17 14 -26 32 -28 55 -86 104 -145 123 -30
9 -81 30 -115 46 -34 16 -88 37 -120 48 -32 10 -81 28 -109 39 -27 12 -65 26
-82 33 -20 7 -33 18 -33 29 0 10 -6 23 -14 29 -12 10 -100 28 -156 32 -37 2
123 30 195 34 44 2 112 13 150 24 39 12 144 37 235 56 91 20 237 54 325 76 88
23 207 52 265 65 138 30 362 88 376 96 5 4 75 21 155 38 79 18 147 37 150 42
9 13 165 50 209 49 29 0 127 19 265 53 11 3 47 2 80 -1 33 -3 79 -7 102 -9z
m-6207 -78 c0 -5 -120 -76 -128 -76 -4 0 20 18 53 40 55 37 75 46 75 36z
m6800 -25 c3 -5 47 -14 98 -20 89 -11 94 -13 127 -50 19 -21 59 -49 88 -62 46
-21 70 -24 224 -27 175 -4 245 4 310 35 28 13 43 14 86 5 55 -11 212 -31 237
-30 17 0 201 -16 425 -38 246 -24 366 -44 420 -69 36 -16 76 -25 140 -29 88
-6 329 -42 471 -71 39 -8 136 -22 215 -30 235 -26 489 -64 574 -87 57 -15 116
-22 205 -24 69 -2 140 -6 159 -9 33 -6 33 -6 25 -48 -4 -23 -8 -148 -8 -277
-1 -155 -5 -242 -12 -255 -7 -11 -15 -49 -19 -85 -9 -92 -42 -300 -62 -399
-13 -65 -14 -87 -5 -102 18 -28 -17 -257 -43 -289 -7 -8 -23 -60 -35 -115 -12
-55 -28 -107 -35 -115 -8 -8 -37 -94 -65 -190 -29 -96 -74 -223 -101 -281 -27
-58 -49 -110 -49 -116 0 -6 -13 -37 -30 -69 -16 -32 -30 -69 -30 -81 0 -11
-16 -40 -35 -63 -20 -23 -63 -90 -98 -148 -34 -58 -85 -131 -113 -161 -28 -31
-75 -90 -106 -131 -30 -41 -83 -109 -119 -150 -82 -96 -428 -440 -442 -440
-15 0 -67 -51 -67 -65 0 -7 -21 -23 -47 -38 -27 -14 -64 -42 -82 -61 -19 -20
-40 -36 -46 -36 -7 0 -20 -9 -30 -20 -10 -11 -24 -20 -31 -20 -7 0 -37 -21
-68 -46 -31 -25 -82 -57 -114 -71 -31 -14 -72 -32 -91 -40 -40 -18 -247 -70
-313 -79 -26 -4 -53 -13 -59 -20 -6 -8 -14 -12 -18 -10 -3 2 -114 11 -246 20
-132 9 -265 23 -295 30 -30 8 -83 19 -117 25 -66 12 -153 44 -193 72 -14 9
-56 32 -95 52 -43 21 -104 66 -156 114 -88 81 -169 168 -169 182 0 5 -24 35
-52 68 -105 118 -144 166 -193 237 -27 40 -60 87 -73 104 -13 18 -21 32 -17
32 3 0 -6 17 -20 37 -14 21 -25 43 -25 50 0 7 -12 29 -26 50 -69 102 -249 542
-276 673 -10 52 -32 145 -49 205 -16 61 -34 135 -40 165 -5 30 -21 105 -34
165 -13 61 -34 164 -45 230 -12 66 -28 143 -35 170 -8 28 -19 95 -25 150 -19
163 -41 287 -61 340 -23 60 -25 128 -5 144 10 9 16 40 18 99 7 147 52 346 104
462 69 153 170 313 224 355 14 10 59 51 100 91 41 39 116 106 165 149 l90 77
55 -6 c30 -4 57 -11 60 -15z m-3240 -471 c0 -20 29 -42 80 -59 20 -6 43 -20
53 -31 9 -11 25 -20 35 -20 29 0 185 -41 207 -54 11 -7 46 -18 77 -25 32 -7
60 -16 63 -21 8 -12 114 -60 134 -60 9 0 25 -6 36 -13 11 -7 41 -21 67 -31 47
-17 108 -74 108 -100 0 -8 16 -28 35 -45 19 -17 35 -36 35 -43 0 -7 14 -33 30
-58 16 -25 30 -50 30 -55 0 -6 20 -52 45 -103 25 -50 45 -100 45 -109 0 -10 9
-33 21 -52 16 -26 19 -44 15 -75 -4 -23 1 -76 9 -119 8 -44 13 -82 10 -87 -2
-4 -12 -63 -20 -131 -9 -67 -22 -134 -30 -148 -7 -15 -16 -73 -19 -131 -8
-122 -52 -374 -71 -404 -7 -12 -20 -59 -30 -106 -10 -47 -24 -89 -31 -95 -8
-6 -18 -46 -24 -100 -23 -199 -28 -232 -45 -269 -9 -21 -28 -84 -41 -139 -40
-162 -102 -334 -152 -426 -26 -47 -56 -106 -67 -131 -10 -25 -29 -59 -42 -76
-12 -17 -47 -94 -77 -172 -40 -106 -62 -148 -84 -167 -19 -16 -67 -99 -132
-225 -63 -124 -110 -205 -123 -212 -12 -6 -27 -18 -34 -27 -17 -22 -174 -276
-207 -333 -66 -117 -267 -338 -307 -338 -9 0 -49 -37 -87 -82 -76 -89 -309
-325 -317 -320 -15 7 -33 -6 -118 -81 -92 -83 -151 -127 -322 -240 -49 -33
-104 -72 -122 -88 -37 -32 -194 -119 -215 -119 -8 0 -32 -13 -54 -30 -21 -16
-50 -30 -62 -30 -13 0 -37 -9 -53 -21 -38 -27 -246 -125 -284 -135 -17 -3 -90
-26 -162 -50 -137 -46 -163 -51 -163 -34 0 16 -46 23 -69 10 -29 -15 -352 -99
-422 -110 -83 -12 -404 29 -422 54 -15 20 -77 35 -150 36 -26 0 -128 16 -225
35 -97 19 -202 36 -233 39 -31 2 -65 9 -77 15 -11 6 -29 11 -39 11 -25 0 -85
44 -100 75 -13 23 -33 38 -193 140 -40 26 -103 75 -138 109 -69 65 -162 196
-162 228 0 10 -20 53 -43 96 -79 140 -175 326 -202 392 -14 36 -35 73 -46 82
-16 14 -30 69 -69 278 -27 143 -54 275 -59 293 -37 113 -71 370 -71 537 0 100
-3 130 -16 149 -14 19 -14 26 -3 47 11 21 10 53 -4 193 -9 92 -14 176 -12 187
2 10 6 37 9 59 8 72 46 309 57 355 6 25 21 106 34 180 21 119 22 138 9 158 -8
12 -10 22 -5 22 15 0 22 33 31 151 7 103 10 113 34 133 14 11 39 53 54 91 16
39 34 79 40 90 7 11 41 83 76 161 73 161 163 309 227 373 43 44 184 141 205
141 6 0 87 40 181 89 93 48 208 101 254 116 239 79 576 208 595 228 13 15 73
39 175 70 318 100 475 151 502 164 29 15 340 97 498 133 47 10 96 24 110 29
67 30 267 78 304 74 28 -3 84 9 190 41 205 62 481 129 677 165 90 17 178 33
196 37 21 4 32 3 32 -5 0 -17 42 -13 148 13 53 13 158 34 232 46 74 12 136 23
137 23 1 1 27 3 57 4 48 1 56 -1 56 -17z m7143 -284 c3 -8 -1 -17 -9 -20 -9
-4 -14 1 -14 14 0 23 15 27 23 6z m-11593 -329 c0 -2 -10 -12 -22 -23 l-23
-19 19 23 c18 21 26 27 26 19z m-40 -51 c0 -2 -8 -10 -17 -17 -16 -13 -17 -12
-4 4 13 16 21 21 21 13z m-255 -136 c-3 -5 -18 -10 -33 -10 -21 0 -24 2 -12
10 20 13 53 13 45 0z m365 -350 c-8 -5 -22 -10 -30 -10 -13 0 -13 1 0 10 8 5
22 10 30 10 13 0 13 -1 0 -10z m-4812 -424 c96 -54 149 -86 140 -86 -7 0 -251
129 -258 137 -13 14 47 -12 118 -51z m222 -116 c0 -13 -11 -13 -30 0 -12 8
-11 10 8 10 12 0 22 -4 22 -10z m316 -187 c-4 -5 -116 56 -116 64 0 2 27 -10
60 -28 33 -18 58 -34 56 -36z m84 -49 c0 -2 -13 2 -30 11 -16 9 -30 18 -30 21
0 2 14 -2 30 -11 17 -9 30 -18 30 -21z m338 -187 c7 -5 11 -12 9 -14 -5 -5
-166 87 -173 99 -6 9 138 -65 164 -85z m859 -456 c10 -6 15 -11 11 -11 -12 0
-178 78 -178 84 0 5 130 -52 167 -73z m2170 -563 c-3 -8 -6 -5 -6 6 -1 11 2
17 5 13 3 -3 4 -12 1 -19z m-334 -105 c-7 -2 -19 -2 -25 0 -7 3 -2 5 12 5 14
0 19 -2 13 -5z m-363 -33 c8 -5 11 -10 5 -10 -5 0 -17 5 -25 10 -8 5 -10 10
-5 10 6 0 17 -5 25 -10z"/>
</g>
</svg>
